<?xml version="1.0" standalone="no"?>
<!DOCTYPE svg PUBLIC "-//W3C//DTD SVG 20010904//EN"
 "http://www.w3.org/TR/2001/REC-SVG-20010904/DTD/svg10.dtd">
<svg version="1.0" xmlns="http://www.w3.org/2000/svg"
 width="1280.000000pt" height="1159.000000pt" viewBox="0 0 1280.000000 1159.000000"
 preserveAspectRatio="xMidYMid meet">
<g transform="translate(0.000000,1159.000000) scale(0.100000,-0.100000)"
fill="#000000" stroke="none">
<path d="M3090 9509 c-834 -16 -1571 -29 -2255 -39 -390 -6 -738 -13 -772 -16
l-63 -6 0 -83 c0 -50 131 -1131 320 -2652 176 -1412 430 -3454 565 -4538 135
-1084 248 -1985 251 -2003 4 -29 9 -33 27 -29 12 3 81 13 152 22 72 9 139 20
150 25 11 5 279 52 595 105 316 53 787 132 1045 175 259 44 794 134 1190 200
1103 185 1982 333 2500 420 512 86 2297 386 3029 509 442 74 458 77 471 101 7
14 160 412 340 885 401 1053 361 948 715 1875 161 421 309 810 330 865 21 55
187 492 370 970 183 479 349 915 370 970 21 55 115 302 209 548 l171 449 0 99
0 99 -52 0 c-29 0 -282 -11 -563 -25 -280 -14 -790 -38 -1132 -55 -343 -16
-903 -44 -1245 -60 -343 -17 -812 -39 -1043 -50 -231 -11 -448 -22 -483 -24
l-63 -5 -12 32 c-6 18 -66 201 -132 407 l-121 375 -1814 3 -1815 3 -130 229
-130 230 -290 -2 c-159 -1 -468 -5 -685 -9z"/>
</g>
</svg>
